<svg width="73" height="73" viewBox="0 0 73 73" fill="none" xmlns="http://www.w3.org/2000/svg">
<circle cx="36.5" cy="36.5" r="36.5" fill="#FFA02C"/>
<path d="M18.2953 36.4131C17.1775 36.4131 16.2609 35.5047 16.3725 34.3925C16.5696 32.4291 17.0533 30.5014 17.8112 28.6717C18.8278 26.2174 20.3179 23.9873 22.1964 22.1089C24.0748 20.2304 26.3049 18.7403 28.7592 17.7237C31.2135 16.7071 33.8441 16.1838 36.5006 16.1838C39.1572 16.1838 41.7877 16.7071 44.242 17.7237C46.6964 18.7403 48.9264 20.2304 50.8049 22.1089C52.6833 23.9873 54.1734 26.2174 55.19 28.6717C55.9479 30.5014 56.4316 32.4291 56.6287 34.3925C56.7404 35.5047 55.8237 36.4131 54.7059 36.4131C53.5881 36.4131 52.695 35.5035 52.5555 34.3944C52.3755 32.9631 52.0046 31.5592 51.4502 30.2208C50.637 28.2576 49.4451 26.4738 47.9425 24.9712C46.44 23.4686 44.6561 22.2767 42.6929 21.4635C40.7297 20.6503 38.6256 20.2318 36.5006 20.2318C34.3757 20.2318 32.2715 20.6503 30.3083 21.4635C28.3451 22.2767 26.5613 23.4686 25.0587 24.9712C23.5561 26.4738 22.3642 28.2576 21.551 30.2208C20.9967 31.5592 20.6257 32.9631 20.4457 34.3944C20.3063 35.5035 19.4131 36.4131 18.2953 36.4131Z" fill="white"/>
<path d="M32.7132 12.1195C32.7132 11.5858 32.8111 11.0573 33.0014 10.5642C33.1918 10.071 33.4707 9.623 33.8224 9.24559C34.1741 8.86818 34.5916 8.56881 35.0511 8.36456C35.5106 8.16031 36.003 8.05518 36.5004 8.05518C36.9977 8.05518 37.4902 8.16031 37.9497 8.36456C38.4092 8.56881 38.8267 8.86819 39.1783 9.24559C39.53 9.623 39.809 10.071 39.9993 10.5642C40.1896 11.0573 40.2876 11.5858 40.2876 12.1195L36.5004 12.1195L32.7132 12.1195Z" fill="white"/>
</svg>
